<?xml version="1.0" encoding="utf-8"?>
<!-- Generator: Adobe Illustrator 21.1.0, SVG Export Plug-In . SVG Version: 6.00 Build 0)  -->
<svg version="1.1"
	 id="svg2" inkscape:export-filename="/home/thockin/src/kubernetes/kubernetes.png" inkscape:export-xdpi="250.55" inkscape:export-ydpi="250.55" inkscape:version="0.48.4 r9939" sodipodi:docname="name_white.svg" xmlns:cc="http://creativecommons.org/ns#" xmlns:dc="http://purl.org/dc/elements/1.1/" xmlns:inkscape="http://www.inkscape.org/namespaces/inkscape" xmlns:rdf="http://www.w3.org/1999/02/22-rdf-syntax-ns#" xmlns:sodipodi="http://sodipodi.sourceforge.net/DTD/sodipodi-0.dtd" xmlns:svg="http://www.w3.org/2000/svg"
	 xmlns="http://www.w3.org/2000/svg" xmlns:xlink="http://www.w3.org/1999/xlink" x="0px" y="0px"
	 viewBox="-131.091 -267.763 432 432" enable-background="new -131.091 -267.763 432 432" xml:space="preserve">
<g>
	<polygon fill="#FFFFFF" points="84.482,-240.688 241.358,-165.78 280.12,2.576 171.578,137.599 -2.535,137.617 -111.107,2.618 
		-72.381,-165.744 	"/>
	<polygon fill="none" points="84.482,-240.688 241.358,-165.78 280.12,2.576 171.578,137.599 -2.535,137.616 -111.107,2.618 
		-72.381,-165.744 	"/>
	<path fill="#326CE5" d="M83.027-258.858c-3.768,0.187-7.495,1.132-10.892,2.756l-148.59,70.998
		c-7.661,3.658-13.484,10.898-15.376,19.116L-128.487-6.507c-1.69,7.326-0.265,15.304,3.857,21.608
		c0.502,0.772,1.039,1.52,1.615,2.242l102.85,127.879c5.3,6.589,13.712,10.606,22.213,10.603l164.936-0.039
		c8.495,0.006,16.907-4.003,22.214-10.586L292.01,17.304c5.306-6.592,7.385-15.624,5.493-23.85l-36.716-159.478
		c-1.891-8.222-7.714-15.461-15.372-19.119l-148.61-70.959C92.538-258.142,87.754-259.098,83.027-258.858z"/>
	<path fill="#FFFFFF" d="M84.211-1.777c1.232-0.044,2.483,0.208,3.671,0.781c1.555,0.748,2.758,1.927,3.516,3.343h0.169
		l22.636,40.897c-2.94,0.983-5.96,1.826-9.048,2.527c-17.308,3.932-34.563,2.741-50.188-2.583L77.542,2.366h0.039
		C78.935-0.164,81.503-1.676,84.211-1.777z M45.425-20.608c3.533,0.048,6.705,2.503,7.524,6.099
		c0.386,1.684,0.199,3.353-0.436,4.828l0.134,0.17L34.861,33.475C18.229,22.803,4.983,6.826-2.102-12.778L43.81-20.57l0.078,0.095
		C44.401-20.57,44.921-20.618,45.425-20.608z M123.208-20.798c0.609-0.033,1.215,0.024,1.805,0.134l0.078-0.095l46.313,7.827
		c-6.779,19.042-19.75,35.54-37.079,46.58L116.349-9.776l0.056-0.078c-1.651-3.836,0-8.337,3.801-10.167
		C121.18-20.49,122.195-20.748,123.208-20.798z M77.335-58.845h14.309l8.893,11.117l-3.192,13.873l-12.849,6.176l-12.884-6.194
		L68.42-47.745L77.335-58.845z M162.87-92.482c5.19,8.413,9.119,17.807,11.459,27.992c2.313,10.064,2.892,20.109,1.939,29.819
		l-45-12.961l-0.039-0.19c-4.03-1.101-6.506-5.199-5.567-9.312c0.383-1.684,1.276-3.109,2.488-4.163l-0.017-0.095L162.87-92.482z
		 M5.88-92.499l34.928,31.24l-0.039,0.19c3.153,2.741,3.617,7.498,0.989,10.794c-1.078,1.351-2.521,2.256-4.068,2.681l-0.039,0.151
		L-7.12-34.52C-9.398-55.356-4.489-75.613,5.88-92.499z M95.652-135.602c20.236,2.491,38.949,11.652,53.288,25.693l-38.008,26.947
		l-0.134-0.057c-3.374,2.465-8.127,1.853-10.755-1.443c-1.078-1.351-1.646-2.94-1.71-4.543l-0.039-0.017L95.652-135.602z
		 M73.361-135.602l-2.643,46.655l-0.19,0.095c-0.175,4.175-3.611,7.507-7.827,7.507c-1.729,0-3.323-0.553-4.621-1.5l-0.074,0.039
		l-38.254-27.119c11.755-11.563,26.795-20.105,44.124-24.04C67.045-134.685,70.208-135.219,73.361-135.602z M84.496-204.587
		c-4.911,0.003-8.893,4.427-8.893,9.882c0,0.086,0.018,0.166,0.021,0.249c-0.009,0.739-0.045,1.633-0.021,2.28
		c0.119,3.147,0.805,5.555,1.218,8.457c0.748,6.206,1.374,11.351,0.989,16.132c-0.378,1.805-1.705,3.453-2.889,4.6l-0.211,3.762
		c-5.336,0.442-10.71,1.253-16.076,2.471c-23.093,5.244-42.975,17.139-58.113,33.201c-0.983-0.671-2.702-1.903-3.213-2.28
		c-1.589,0.214-3.192,0.704-5.282-0.514c-3.979-2.678-7.605-6.378-11.99-10.832c-2.011-2.128-3.466-4.16-5.856-6.214
		c-0.54-0.467-1.368-1.096-1.974-1.577c-1.868-1.488-4.068-2.262-6.198-2.337c-2.731-0.095-5.365,0.975-7.088,3.136
		c-3.061,3.84-2.081,9.71,2.185,13.113c0.045,0.036,0.089,0.062,0.134,0.095c0.585,0.475,1.304,1.084,1.844,1.482
		c2.533,1.871,4.849,2.83,7.373,4.315c5.318,3.285,9.728,6.011,13.225,9.294c1.366,1.455,1.607,4.02,1.788,5.131l2.851,2.544
		C-26.941-85.234-34.005-56.867-29.83-27.964l-3.723,1.084c-0.983,1.268-2.37,3.263-3.822,3.857
		c-4.575,1.44-9.725,1.972-15.942,2.622c-2.922,0.244-5.44,0.098-8.534,0.686c-0.68,0.128-1.631,0.374-2.375,0.549
		c-0.027,0.006-0.05,0.015-0.078,0.021c-0.038,0.009-0.092,0.027-0.13,0.036c-5.244,1.268-8.612,6.087-7.528,10.832
		c1.084,4.751,6.206,7.637,11.48,6.499c0.039-0.008,0.092-0.008,0.134-0.017c0.059-0.015,0.109-0.042,0.169-0.056
		c0.737-0.163,1.657-0.341,2.302-0.514c3.041-0.816,5.244-2.013,7.982-3.061c5.882-2.109,10.758-3.872,15.506-4.561
		c1.983-0.154,4.074,1.226,5.114,1.805l3.875-0.665C-16.48,18.812,2.215,41.169,25.89,55.197l-1.615,3.878
		c0.582,1.506,1.223,3.542,0.79,5.03c-1.726,4.475-4.683,9.199-8.05,14.467c-1.631,2.435-3.299,4.323-4.768,7.108
		c-0.353,0.665-0.802,1.69-1.14,2.394c-2.287,4.893-0.612,10.526,3.779,12.638c4.419,2.128,9.903-0.116,12.279-5.016
		c0.002-0.009,0.014-0.012,0.017-0.021c0.003-0.003-0.003-0.012,0-0.018c0.338-0.695,0.816-1.609,1.101-2.262
		c1.262-2.886,1.681-5.36,2.566-8.151c2.355-5.912,3.646-12.115,6.886-15.978c0.888-1.057,2.334-1.466,3.833-1.868l2.013-3.649
		c20.64,7.922,43.742,10.048,66.82,4.81c5.264-1.196,10.345-2.744,15.259-4.6c0.564,1.003,1.618,2.933,1.9,3.421
		c1.523,0.496,3.186,0.751,4.54,2.756c2.426,4.139,4.083,9.039,6.103,14.957c0.885,2.791,1.324,5.265,2.583,8.15
		c0.288,0.66,0.763,1.586,1.101,2.28c2.37,4.917,7.872,7.168,12.296,5.036c4.392-2.114,6.07-7.747,3.783-12.638
		c-0.341-0.703-0.808-1.728-1.161-2.393c-1.469-2.785-3.139-4.656-4.768-7.088c-3.367-5.268-6.162-9.645-7.887-14.122
		c-0.721-2.307,0.122-3.744,0.683-5.244c-0.335-0.386-1.057-2.566-1.482-3.593c24.604-14.527,42.75-37.717,51.272-64.498
		c1.152,0.181,3.154,0.534,3.801,0.665c1.339-0.882,2.569-2.034,4.98-1.844c4.748,0.686,9.624,2.45,15.509,4.561
		c2.734,1.048,4.938,2.266,7.982,3.079c0.641,0.173,1.561,0.333,2.298,0.493c0.059,0.015,0.113,0.045,0.173,0.057
		c0.038,0.008,0.095,0.011,0.13,0.021c5.274,1.134,10.396-1.752,11.48-6.5c1.084-4.748-2.283-9.567-7.524-10.832
		c-0.763-0.172-1.844-0.469-2.587-0.609c-3.094-0.585-5.612-0.439-8.53-0.683c-6.218-0.653-11.37-1.182-15.946-2.622
		c-1.865-0.724-3.192-2.946-3.84-3.86l-3.589-1.045c1.862-13.472,1.36-27.493-1.865-41.523c-3.251-14.158-8.999-27.11-16.663-38.519
		c0.92-0.838,2.661-2.379,3.153-2.833c0.145-1.594,0.021-3.269,1.672-5.036c3.498-3.284,7.908-6.007,13.229-9.294
		c2.524-1.485,4.857-2.441,7.39-4.312c0.573-0.425,1.357-1.096,1.957-1.58c4.268-3.403,5.25-9.271,2.185-13.113
		c-3.061-3.84-8.997-4.202-13.264-0.796c-0.606,0.481-1.431,1.108-1.974,1.577c-2.391,2.055-3.864,4.083-5.874,6.215
		c-4.386,4.454-8.011,8.172-11.99,10.85c-1.726,1.004-4.252,0.657-5.399,0.588l-3.382,2.414
		c-19.289-20.227-45.553-33.159-73.83-35.67c-0.081-1.185-0.184-3.326-0.211-3.97c-1.155-1.108-2.553-2.055-2.907-4.448
		c-0.386-4.781,0.258-9.926,1.006-16.132c0.413-2.901,1.102-5.31,1.218-8.457c0.027-0.716-0.015-1.755-0.017-2.53
		C93.39-200.159,89.41-204.587,84.496-204.587z"/>
	<path fill="none" d="M84.211-1.777c1.232-0.044,2.483,0.208,3.671,0.781c1.555,0.748,2.758,1.927,3.516,3.343h0.169l22.636,40.897
		c-2.94,0.983-5.96,1.826-9.048,2.527c-17.308,3.932-34.563,2.741-50.188-2.583L77.542,2.366h0.039
		C78.935-0.164,81.503-1.676,84.211-1.777z M45.425-20.608c3.533,0.048,6.705,2.503,7.524,6.099
		c0.386,1.684,0.199,3.353-0.436,4.828l0.134,0.17L34.861,33.475C18.229,22.803,4.983,6.826-2.102-12.778L43.81-20.57l0.078,0.095
		C44.401-20.57,44.921-20.618,45.425-20.608z M123.208-20.798c0.609-0.033,1.215,0.024,1.805,0.134l0.078-0.095l46.313,7.827
		c-6.779,19.042-19.75,35.54-37.079,46.58L116.349-9.776l0.056-0.078c-1.651-3.836,0-8.337,3.801-10.167
		C121.18-20.49,122.195-20.748,123.208-20.798z M77.335-58.845h14.309l8.893,11.117l-3.192,13.873l-12.849,6.176l-12.884-6.194
		L68.42-47.745L77.335-58.845z M162.87-92.482c5.19,8.413,9.119,17.807,11.459,27.992c2.313,10.064,2.892,20.109,1.939,29.819
		l-45-12.961l-0.039-0.19c-4.03-1.101-6.506-5.199-5.567-9.312c0.383-1.684,1.276-3.109,2.488-4.163l-0.017-0.095L162.87-92.482z
		 M5.88-92.499l34.928,31.24l-0.039,0.19c3.153,2.741,3.617,7.498,0.989,10.794c-1.078,1.351-2.521,2.256-4.068,2.681l-0.039,0.151
		L-7.12-34.52C-9.398-55.356-4.489-75.613,5.88-92.499z M95.652-135.602c20.236,2.491,38.949,11.652,53.288,25.693l-38.008,26.947
		l-0.134-0.057c-3.374,2.465-8.127,1.853-10.755-1.443c-1.078-1.351-1.646-2.94-1.71-4.543l-0.039-0.017L95.652-135.602z
		 M73.361-135.602l-2.643,46.655l-0.19,0.095c-0.175,4.175-3.611,7.507-7.827,7.507c-1.729,0-3.323-0.553-4.621-1.5l-0.074,0.039
		l-38.254-27.119c11.755-11.563,26.795-20.105,44.124-24.04C67.045-134.685,70.208-135.219,73.361-135.602z M84.496-204.587
		c-4.911,0.003-8.893,4.427-8.893,9.882c0,0.086,0.018,0.166,0.021,0.249c-0.009,0.739-0.045,1.633-0.021,2.28
		c0.119,3.147,0.805,5.555,1.218,8.457c0.748,6.206,1.374,11.351,0.989,16.132c-0.378,1.805-1.705,3.453-2.889,4.6l-0.211,3.762
		c-5.336,0.442-10.71,1.253-16.076,2.471c-23.093,5.244-42.975,17.139-58.113,33.201c-0.983-0.671-2.702-1.903-3.213-2.28
		c-1.589,0.214-3.192,0.704-5.282-0.514c-3.979-2.678-7.605-6.378-11.99-10.832c-2.011-2.128-3.466-4.16-5.856-6.214
		c-0.54-0.467-1.368-1.096-1.974-1.577c-1.868-1.488-4.068-2.262-6.198-2.337c-2.731-0.095-5.365,0.975-7.088,3.136
		c-3.061,3.84-2.081,9.71,2.185,13.113c0.045,0.036,0.089,0.062,0.134,0.095c0.585,0.475,1.304,1.084,1.844,1.482
		c2.533,1.871,4.849,2.83,7.373,4.315c5.318,3.285,9.728,6.011,13.225,9.294c1.366,1.455,1.607,4.02,1.788,5.131l2.851,2.544
		C-26.941-85.234-34.005-56.867-29.83-27.964l-3.723,1.084c-0.983,1.268-2.37,3.263-3.822,3.857
		c-4.575,1.44-9.725,1.972-15.942,2.622c-2.922,0.244-5.44,0.098-8.534,0.686c-0.68,0.128-1.631,0.374-2.375,0.549
		c-0.027,0.006-0.05,0.015-0.078,0.021c-0.038,0.009-0.092,0.027-0.13,0.036c-5.244,1.268-8.612,6.087-7.528,10.832
		c1.084,4.751,6.206,7.637,11.48,6.499c0.039-0.008,0.092-0.008,0.134-0.017c0.059-0.015,0.109-0.042,0.169-0.056
		c0.737-0.163,1.657-0.341,2.302-0.514c3.041-0.816,5.244-2.013,7.982-3.061c5.882-2.109,10.758-3.872,15.506-4.561
		c1.983-0.154,4.074,1.226,5.114,1.805l3.875-0.665C-16.48,18.812,2.215,41.169,25.89,55.197l-1.615,3.878
		c0.582,1.506,1.223,3.542,0.79,5.03c-1.726,4.475-4.683,9.199-8.05,14.467c-1.631,2.435-3.299,4.323-4.768,7.108
		c-0.353,0.665-0.802,1.69-1.14,2.394c-2.287,4.893-0.612,10.526,3.779,12.638c4.419,2.128,9.903-0.116,12.279-5.016
		c0.002-0.009,0.014-0.012,0.017-0.021c0.003-0.003-0.003-0.012,0-0.018c0.338-0.695,0.816-1.609,1.101-2.262
		c1.262-2.886,1.681-5.36,2.566-8.151c2.355-5.912,3.646-12.115,6.886-15.978c0.888-1.057,2.334-1.466,3.833-1.868l2.013-3.649
		c20.64,7.922,43.742,10.048,66.82,4.81c5.264-1.196,10.345-2.744,15.259-4.6c0.564,1.003,1.618,2.933,1.9,3.421
		c1.523,0.496,3.186,0.751,4.54,2.756c2.426,4.139,4.083,9.039,6.103,14.957c0.885,2.791,1.324,5.265,2.583,8.15
		c0.288,0.66,0.763,1.586,1.101,2.28c2.37,4.917,7.872,7.168,12.296,5.036c4.392-2.114,6.07-7.747,3.783-12.638
		c-0.341-0.703-0.808-1.728-1.161-2.393c-1.469-2.785-3.139-4.656-4.768-7.088c-3.367-5.268-6.162-9.645-7.887-14.122
		c-0.721-2.307,0.122-3.744,0.683-5.244c-0.335-0.386-1.057-2.566-1.482-3.593c24.604-14.527,42.75-37.717,51.272-64.498
		c1.152,0.181,3.154,0.534,3.801,0.665c1.339-0.882,2.569-2.034,4.98-1.844c4.748,0.686,9.624,2.45,15.509,4.561
		c2.734,1.048,4.938,2.266,7.982,3.079c0.641,0.173,1.561,0.333,2.298,0.493c0.059,0.015,0.113,0.045,0.173,0.057
		c0.038,0.008,0.095,0.011,0.13,0.021c5.274,1.134,10.396-1.752,11.48-6.5c1.084-4.748-2.283-9.567-7.524-10.832
		c-0.763-0.172-1.844-0.469-2.587-0.609c-3.094-0.585-5.612-0.439-8.53-0.683c-6.218-0.653-11.37-1.182-15.946-2.622
		c-1.865-0.724-3.192-2.946-3.84-3.86l-3.589-1.045c1.862-13.472,1.36-27.493-1.865-41.523c-3.251-14.158-8.999-27.11-16.663-38.519
		c0.92-0.838,2.661-2.379,3.153-2.833c0.145-1.594,0.021-3.269,1.672-5.036c3.498-3.284,7.908-6.007,13.229-9.294
		c2.524-1.485,4.857-2.441,7.39-4.312c0.573-0.425,1.357-1.096,1.957-1.58c4.268-3.403,5.25-9.271,2.185-13.113
		c-3.061-3.84-8.997-4.202-13.264-0.796c-0.606,0.481-1.431,1.108-1.974,1.577c-2.391,2.055-3.864,4.083-5.874,6.215
		c-4.386,4.454-8.011,8.172-11.99,10.85c-1.726,1.004-4.252,0.657-5.399,0.588l-3.382,2.414
		c-19.289-20.227-45.553-33.159-73.83-35.67c-0.081-1.185-0.184-3.326-0.211-3.97c-1.155-1.108-2.553-2.055-2.907-4.448
		c-0.386-4.781,0.258-9.926,1.006-16.132c0.413-2.901,1.102-5.31,1.218-8.457c0.027-0.716-0.015-1.755-0.017-2.53
		C93.39-200.159,89.41-204.587,84.496-204.587z"/>
</g>
</svg>
